<svg width="120" height="118" viewBox="0 0 120 118" fill="none" xmlns="http://www.w3.org/2000/svg">
<path d="M77.1451 5.96814C84.8429 8.00227 91.4263 14.3122 96.5828 20.3288C101.739 26.3454 105.891 34.1245 108.084 42.0678C110.278 50.0111 111.289 59.6415 109.743 67.9884C108.196 76.3353 103.815 85.578 98.8063 92.1493C93.7978 98.7205 87.0476 104.192 79.6918 107.416C72.3359 110.639 63.3002 111.895 54.6714 111.491C46.0425 111.086 35.22 108.475 27.9187 104.989C20.6173 101.503 15.2575 96.9064 10.8634 90.5771C6.4693 84.2478 2.94843 75.5198 1.55402 67.0132C0.159606 58.5066 0.0942747 47.4954 2.49693 39.5376C4.89959 31.5799 10.5103 24.9065 15.97 19.2669C21.4297 13.6272 27.5225 8.66828 35.2552 5.69984C42.9878 2.73139 53.0641 -0.138854 62.3658 1.45618C71.6676 3.05121 84.3587 10.392 91.0658 15.27C97.7728 20.148 103.024 30.0528 102.608 30.7242L77.1451 5.96814ZM64.5473 4.46848C72.8454 4.9252 82.1808 6.27774 88.9182 10.6733C95.6557 15.0688 101.169 23.2631 104.972 30.8416C108.774 38.4201 111.335 47.732 111.733 56.1442C112.131 64.5565 110.97 73.73 107.359 81.3149C103.748 88.8998 97.0541 96.4836 90.0681 101.653C83.0821 106.823 73.4897 110.978 65.4427 112.334C57.3956 113.689 49.6461 111.917 41.7858 109.786C33.9255 107.655 24.7672 104.777 18.2809 99.5486C11.7946 94.32 5.84415 85.8341 2.868 78.4143C-0.108156 70.9946 -0.458704 62.9065 0.423999 55.03C1.3067 47.1536 4.40304 38.2414 8.16422 31.1556C11.9254 24.0698 16.5081 17.1004 22.9911 12.5153C29.4741 7.93015 40.4258 5.29561 47.0623 3.64486C53.6988 1.99411 60.0234 2.62079 62.8103 2.61081C65.5971 2.60082 63.5463 2.62511 63.7835 3.58496" fill="url(#paint0_radial)"/>
<path d="M76.7899 12.348C83.4682 14.1127 89.1797 19.587 93.6533 24.8068C98.1269 30.0265 101.729 36.7754 103.631 43.6667C105.534 50.558 106.412 58.913 105.07 66.1544C103.729 73.3959 99.9275 81.4146 95.5823 87.1155C91.2371 92.8165 85.3809 97.5636 78.9993 100.36C72.6176 103.157 64.7786 104.246 57.2925 103.895C49.8065 103.544 40.4172 101.279 34.0829 98.2548C27.7485 95.2308 23.0985 91.2426 19.2864 85.7515C15.4742 80.2605 12.4196 72.6884 11.2099 65.3084C10.0002 57.9284 9.94348 48.3755 12.0279 41.4716C14.1124 34.5678 18.98 28.7782 23.7166 23.8855C28.4533 18.9927 33.7392 14.6906 40.4478 12.1152C47.1563 9.53993 55.8981 7.04982 63.9679 8.43361C72.0378 9.8174 83.0481 16.186 88.8669 20.418C94.6857 24.65 99.2416 33.243 98.8808 33.8254L76.7899 12.348ZM65.8605 11.047C73.0596 11.4432 81.1587 12.6166 87.0038 16.43C92.849 20.2434 97.6325 27.3525 100.931 33.9273C104.23 40.5021 106.452 48.5808 106.797 55.8789C107.142 63.177 106.135 71.1357 103.002 77.716C99.8694 84.2964 94.0622 90.8758 88.0014 95.361C81.9406 99.8461 73.6186 103.451 66.6373 104.627C59.656 105.803 52.9328 104.265 46.1135 102.416C39.2942 100.568 31.3488 98.071 25.7215 93.5349C20.0943 88.9987 14.9319 81.6367 12.3499 75.1996C9.76786 68.7625 9.46374 61.7456 10.2295 54.9123C10.9953 48.0789 13.6816 40.3471 16.9447 34.1997C20.2077 28.0524 24.1835 22.0059 29.8079 18.0281C35.4323 14.0502 44.9336 11.7645 50.6912 10.3324C56.4488 8.9003 61.9357 9.44398 64.3535 9.43532C66.7713 9.42666 64.9921 9.44773 65.1978 10.2805" fill="url(#paint1_radial)"/>
<path d="M96.5839 14.6599C103.265 18.6114 107.638 26.0771 110.969 33.901C114.3 41.725 116.528 52.9326 116.57 61.6035C116.611 70.2744 115.139 78.5054 111.218 85.9266C107.296 93.3478 100.169 101.273 93.0427 106.131C85.9169 110.989 76.9338 113.623 68.4624 115.076C59.9911 116.528 50.5898 117.069 42.2147 114.845C33.8395 112.621 24.4004 107.921 18.2117 101.732C12.0231 95.5432 7.91512 86.2861 5.08271 77.7134C2.2503 69.1407 0.333408 58.7141 1.21726 50.2959C2.10111 41.8778 5.44813 34.0353 10.3858 27.2044C15.3235 20.3735 23.2259 13.6588 30.8434 9.31061C38.4609 4.9624 47.2269 1.46302 56.0909 1.11517C64.9549 0.767326 74.7893 1.39176 84.0275 7.22354C93.2658 13.0553 106.371 26.488 111.52 36.1058C116.67 45.7236 115.717 64.2794 114.927 64.9303M63.2459 2.51546C71.4777 2.03364 78.6517 5.21015 85.6945 9.09798C92.7372 12.9858 100.137 19.2352 105.502 25.8425C110.867 32.4497 116.64 39.9024 117.886 48.7413C119.132 57.5802 115.831 70.3026 112.979 78.8759C110.127 87.4492 106.95 94.6395 100.776 100.181C94.6015 105.723 84.1935 109.335 75.933 112.125C67.6724 114.916 59.5071 117.485 51.2125 116.922C42.9178 116.359 32.9534 113.455 26.1652 108.748C19.3771 104.041 14.4906 96.4026 10.4836 88.6819C6.47655 80.9612 2.82708 71.3396 2.12301 62.4237C1.41894 53.5079 2.66041 43.3438 6.25915 35.1867C9.85788 27.0296 16.9123 18.5976 23.7154 13.4811C30.5186 8.36466 40.5328 6.36355 47.0782 4.48806C53.6236 2.61257 60.8534 2.6458 62.9881 2.22818C65.1228 1.81056 59.7275 1.353 59.8865 1.98234" stroke="black" stroke-width="2"/>
<path d="M32.6568 49.3343C32.619 49.2955 32.582 49.2557 32.5457 49.2148C30.104 46.4633 31.1612 41.7215 33.4778 39.8428C35.1172 38.5134 38.2574 38.562 40.3446 40.0489C40.4818 40.1466 40.6144 40.2505 40.7417 40.3607C44.1244 43.2866 42.4147 48.8471 41.1542 51.5638C39.4976 55.1345 34.1074 53.129 32.7436 49.5739C32.7132 49.4947 32.6842 49.4148 32.6568 49.3343Z" fill="black"/>
<path d="M38.9524 40.1142C41.5466 42.4049 43.3649 46.6458 41.0751 48.9647C39.5914 50.4673 34.6948 51.6365 32.5457 49.2148C30.104 46.4633 31.1612 41.7215 33.4778 39.8428C35.2249 38.426 38.6765 38.5743 40.7417 40.3607C44.1244 43.2866 42.4147 48.8471 41.1542 51.5638C39.4976 55.1345 34.1074 53.129 32.7436 49.5739C31.3723 45.9994 32.9988 41.1271 37.2388 40.1491C39.6052 39.6032 43.8996 40.1803 44.3763 42.8181" stroke="black" stroke-linecap="round" stroke-linejoin="round"/>
<path d="M77.6815 52.8933C77.7269 52.8482 77.7719 52.8014 77.8162 52.7527C80.8077 49.4703 80.8292 41.8197 78.9872 38.0701C77.6837 35.4165 74.611 34.3017 72.2458 35.7848C72.0904 35.8822 71.9381 35.9909 71.7895 36.111C67.8418 39.3037 68.2749 48.4531 68.9011 53.0843C69.7241 59.1712 75.4249 58.146 77.5437 53.2268C77.5909 53.1171 77.6368 53.0059 77.6815 52.8933Z" fill="black"/>
<path d="M73.5889 36.4119C70.551 38.9319 67.8369 44.7276 69.5551 49.1403C70.6684 51.9995 75.1834 55.6416 77.8162 52.7527C80.8077 49.4703 80.8292 41.8197 78.9872 38.0701C77.5981 35.2421 74.1996 34.1619 71.7895 36.111C67.8418 39.3037 68.2749 48.4531 68.9011 53.0843C69.7241 59.1712 75.4249 58.146 77.5437 53.2268C79.674 48.2807 79.1693 40.2151 75.252 37.1141C73.0657 35.3833 68.7503 34.6393 67.7002 38.4921" stroke="black" stroke-linecap="round" stroke-linejoin="round"/>
<path d="M34 77.9541C35.9975 77.0781 42.5992 75.7228 53.0262 77.31C63.4533 78.8972 69.0724 82.1127 70.5786 83.5221C68.1165 81.7986 61.3422 78.07 53.9424 76.9436C44.6926 75.5357 41.1786 76.0123 37.6394 76.6536" stroke="black" stroke-width="2"/>
<path d="M25.0982 30.757C27.8966 29.6463 31.0052 28.872 33.932 29.7635C34.751 30.013 35.6033 30.6964 36.3372 31.1575C37.493 31.8837 38.9424 32.2524 40.2332 32.6004C42.0304 33.0849 43.8586 33.5632 45.7055 33.7851C46.3137 33.8582 47.7017 34.3047 48.3244 33.9924C48.8121 33.7479 49.2792 33.3585 49.724 33.0339C50.1873 32.6958 50.0406 33.0573 49.6507 33.2314C49.0688 33.4913 48.554 33.8922 47.9255 34.0346C47.1292 34.215 46.238 33.9874 45.4447 33.8982C43.1272 33.6378 40.7532 32.4109 38.5461 31.6353C37.3313 31.2083 36.2869 30.3497 35.0307 30.0532C33.3702 29.6612 31.6811 29.5027 29.9902 29.3126C28.8298 29.1822 28.3896 29.3515 27.4642 30.097C26.8422 30.5981 25.9952 30.8687 25.4242 31.3634" stroke="black" stroke-width="2" stroke-linecap="round" stroke-linejoin="round"/>
<path d="M64.3077 22.1229C70.4723 19.8605 78.75 15.715 85.3863 18.9644C86.9792 19.7443 88.1005 20.9403 89.4104 22.0885C89.9534 22.5644 90.505 23.0342 91.0359 23.5236C91.1813 23.6576 91.5079 24.085 91.2136 23.577C90.3073 22.0129 88.1663 20.9331 86.608 20.2038C84.1899 19.0722 81.3265 18.489 78.661 18.7763C74.3405 19.2421 70.4813 21.6144 66.0738 21.119" stroke="black" stroke-width="2" stroke-linecap="round" stroke-linejoin="round"/>
<path d="M96.415 42.3018C98.695 43.3874 100.805 44.2694 102.412 46.2394C104.357 48.6231 105.76 51.3136 107.041 54.1025C109.936 60.4096 107.894 67.5298 106.059 73.7544C104.955 77.5021 104.654 81.3275 104.024 85.1553C103.304 89.5224 103.003 93.893 103.2 98.3252C103.354 101.783 104.735 105.431 106.18 108.551C106.921 110.15 107.892 112.657 109.718 113.179" stroke="#4A4A4A" stroke-width="2" stroke-linecap="round" stroke-linejoin="round"/>
<path d="M96.415 43.6104C101.11 47.5527 106.686 51.4417 107.695 58.0524C108.64 64.2442 107.234 70.5656 106.447 76.6865C105.385 84.9481 104.484 93.282 104.484 101.621" stroke="#4A4A4A" stroke-width="2" stroke-linecap="round" stroke-linejoin="round"/>
<path d="M77 25.4996C66.6 25.0996 61 32.6663 59.5 36.4996C58.1974 38.8993 57.9573 45.1664 58 48C59.1667 53.5 64.8 64.6 78 65C94.5 65.5 96 47 96 41.5C96 36 90 25.9996 77 25.4996Z" fill="url(#paint2_linear)"/>
<path d="M70.4255 27.1967C73.602 25.6189 77.1166 25.1765 80.6055 25.7532C85.8012 26.6121 90.0303 29.4671 92.793 34.1778C95.8949 39.467 96.8085 43.6176 95.2626 50.058C94.3112 54.0213 92.7941 56.6461 90.5057 58.9754C88.7642 60.7481 85.2732 63.8344 82.1469 64.425C76.9015 65.4158 73.517 65.346 69.1 62.4433C66.3639 60.6453 63.4456 58.201 61.489 55.5075C59.5214 52.7989 57.8409 47.1264 58.012 43.6228C58.3606 36.4867 61.0133 31.2323 66.9126 27.5949C70.0469 26.2892 73.5408 25.4181 76.9015 25.0937C77.9646 24.9911 79.6285 24.9435 80.737 25.1061C84.7578 25.6962 79.7484 25.0338 82.1469 25.7408" stroke="black" stroke-width="2" stroke-linecap="round" stroke-linejoin="round"/>
<path d="M97.0134 39.054C97.009 42.6322 97.0044 46.2921 97 49.8648" stroke="black" stroke-width="2" stroke-linecap="round" stroke-linejoin="round"/>
<defs>
<radialGradient id="paint0_radial" cx="0" cy="0" r="1" gradientUnits="userSpaceOnUse" gradientTransform="translate(55.9038 56.9038) rotate(90) scale(55.9038)">
<stop stop-color="#FCEA2B"/>
<stop offset="0.768469" stop-color="#FCEA2B"/>
<stop offset="1" stop-color="#FCCE2B"/>
</radialGradient>
<radialGradient id="paint1_radial" cx="0" cy="0" r="1" gradientUnits="userSpaceOnUse" gradientTransform="translate(57.9084 11.2107) rotate(90) scale(44.8738)">
<stop stop-color="#FFFEEE"/>
<stop offset="1" stop-color="#FFFEEE" stop-opacity="0"/>
</radialGradient>
<linearGradient id="paint2_linear" x1="82" y1="25" x2="72" y2="65" gradientUnits="userSpaceOnUse">
<stop stop-color="white"/>
<stop offset="1" stop-color="white" stop-opacity="0"/>
</linearGradient>
</defs>
</svg>
